<svg width="49" height="38" viewBox="0 0 49 38" fill="none" xmlns="http://www.w3.org/2000/svg">
<path d="M16.6517 32.5444C16.4013 32.5579 16.1533 32.4867 15.945 32.3417C15.7367 32.1967 15.5796 31.9857 15.4974 31.7406L14.0668 27.4762C13.4507 25.6206 12.3847 23.9575 10.9707 22.6461C9.55681 21.3346 7.84219 20.4184 5.99076 19.9853L1.73446 18.9749C1.49004 18.9167 1.27033 18.7779 1.10854 18.5795C0.946756 18.3811 0.851696 18.134 0.837731 17.8754C0.823767 17.6168 0.891658 17.3608 1.03114 17.1462C1.17062 16.9316 1.37411 16.7699 1.61085 16.6857L5.73358 15.2229C7.52759 14.5928 9.13359 13.4974 10.398 12.0413C11.6625 10.5851 12.5432 8.81695 12.956 6.90574L13.919 2.51206C13.9745 2.25975 14.108 2.03326 14.2995 1.86681C14.4909 1.70037 14.7298 1.60303 14.9801 1.58952C15.2303 1.576 15.4783 1.64704 15.6866 1.7919C15.8948 1.93675 16.052 2.14755 16.1343 2.39243L17.5649 6.65685C18.1811 8.51249 19.2471 10.1755 20.661 11.487C22.075 12.7985 23.7896 13.7146 25.641 14.1478L29.8973 15.1582C30.1417 15.2164 30.3614 15.3552 30.5232 15.5536C30.685 15.7519 30.7801 15.9991 30.794 16.2577C30.808 16.5163 30.7401 16.7722 30.6006 16.9869C30.4612 17.2015 30.2577 17.3631 30.0209 17.4473L25.8982 18.9102C24.1042 19.5403 22.4982 20.6357 21.2337 22.0918C19.9692 23.548 19.0885 25.3161 18.6758 27.2273L17.7127 31.621C17.6574 31.8735 17.5239 32.1002 17.3325 32.2668C17.141 32.4334 16.9021 32.5308 16.6517 32.5444ZM6.18326 17.5867L6.49549 17.6622C8.72987 18.1851 10.7991 19.2908 12.5055 20.8736C14.2119 22.4564 15.4985 24.4634 16.2423 26.7028L16.3485 27.0155L16.4205 26.6932C16.9187 24.3867 17.9817 22.2528 19.5077 20.4954C21.0338 18.7381 22.9719 17.416 25.137 16.6555L25.4393 16.5469L25.1271 16.4714C22.8927 15.9485 20.8234 14.8428 19.117 13.26C17.4106 11.6772 16.124 9.67022 15.3803 7.43077L15.2784 7.11466L15.2065 7.43696C14.7082 9.74348 13.6453 11.8774 12.1192 13.6347C10.5932 15.3921 8.65505 16.7141 6.48998 17.4746L6.18326 17.5867Z" fill="#27272F" fill-opacity="0.2"/>
<path d="M40.4581 36.8179C40.316 36.8256 40.1751 36.7852 40.0568 36.7028C39.9385 36.6205 39.8493 36.5006 39.8026 36.3615L38.9902 33.9398C38.6403 32.886 38.035 31.9416 37.232 31.1968C36.4291 30.452 35.4553 29.9318 34.4039 29.6858L31.9869 29.112C31.8481 29.079 31.7233 29.0001 31.6314 28.8875C31.5395 28.7748 31.4856 28.6345 31.4776 28.4876C31.4697 28.3408 31.5083 28.1954 31.5875 28.0735C31.6667 27.9517 31.7822 27.8599 31.9167 27.8121L34.2579 26.9813C35.2767 26.6235 36.1887 26.0014 36.9068 25.1745C37.6249 24.3476 38.125 23.3435 38.3594 22.2582L38.9063 19.7631C38.9378 19.6198 39.0136 19.4912 39.1224 19.3966C39.2311 19.3021 39.3667 19.2468 39.5089 19.2392C39.651 19.2315 39.7918 19.2718 39.9101 19.3541C40.0283 19.4364 40.1176 19.5561 40.1643 19.6951L40.9767 22.1168C41.3267 23.1706 41.932 24.115 42.735 24.8598C43.5379 25.6046 44.5116 26.1248 45.563 26.3708L47.9801 26.9446C48.1189 26.9777 48.2437 27.0565 48.3356 27.1691C48.4274 27.2818 48.4814 27.4221 48.4893 27.569C48.4973 27.7158 48.4587 27.8612 48.3795 27.9831C48.3003 28.1049 48.1847 28.1967 48.0503 28.2446L45.7091 29.0753C44.6903 29.4331 43.7783 30.0552 43.0602 30.8821C42.3421 31.709 41.842 32.7131 41.6076 33.7985L41.0607 36.2935C41.0293 36.4369 40.9535 36.5656 40.8447 36.6603C40.736 36.7549 40.6003 36.8102 40.4581 36.8179ZM34.5133 28.3237L34.6906 28.3666C35.9594 28.6635 37.1345 29.2914 38.1036 30.1902C39.0726 31.0891 39.8033 32.2288 40.2256 33.5006L40.286 33.6781L40.3268 33.4951C40.6098 32.1853 41.2134 30.9735 42.08 29.9755C42.9467 28.9775 44.0473 28.2268 45.2768 27.7949L45.4485 27.7332L45.2712 27.6903C44.0023 27.3934 42.8272 26.7655 41.8581 25.8666C40.8891 24.9678 40.1585 23.8281 39.7361 22.5563L39.6783 22.3768L39.6374 22.5598C39.3545 23.8697 38.7508 25.0815 37.8842 26.0794C37.0176 27.0774 35.917 27.8282 34.6875 28.2601L34.5133 28.3237Z" fill="#27272F" fill-opacity="0.2"/>
</svg>
