<svg width="70" height="71" viewBox="0 0 70 71" fill="none" xmlns="http://www.w3.org/2000/svg">
<rect y="0.780273" width="70" height="70" rx="35" fill="#5751E1"/>
<g clip-path="url(#clip0_8512_1972)">
<path d="M26.5116 44.2803H43.4884C46.2519 44.2803 48.5 42.0374 48.5 39.2803V24.7803C48.5 22.0232 46.2519 19.7803 43.4884 19.7803H26.5116C23.7481 19.7803 21.5 22.0232 21.5 24.7803V46.7803C21.5 49.5374 23.7481 51.7803 26.5116 51.7803H43.4884C46.2519 51.7803 48.5 49.5374 48.5 46.7803C48.5 46.0899 47.9391 45.5303 47.2471 45.5303C46.5551 45.5303 45.9942 46.0899 45.9942 46.7803C45.9942 48.1587 44.87 49.2803 43.4884 49.2803H26.5116C25.13 49.2803 24.0058 48.1587 24.0058 46.7803C24.0058 45.4019 25.13 44.2803 26.5116 44.2803ZM24.0058 24.7803C24.0058 23.4019 25.13 22.2803 26.5116 22.2803H43.4884C44.87 22.2803 45.9942 23.4019 45.9942 24.7803V39.2803C45.9942 40.6587 44.87 41.7803 43.4884 41.7803H26.5116C25.5993 41.7803 24.7434 42.0247 24.0058 42.4512V24.7803ZM29.08 28.2178C29.08 27.5273 29.6409 26.9678 30.3329 26.9678H39.7297C40.4217 26.9678 40.9826 27.5273 40.9826 28.2178C40.9826 28.9082 40.4217 29.4678 39.7297 29.4678H30.3329C29.6409 29.4678 29.08 28.9082 29.08 28.2178Z" fill="white"/>
</g>
<defs>
<clipPath id="clip0_8512_1972">
<rect width="27" height="32" fill="white" transform="translate(21.5 19.7803)"/>
</clipPath>
</defs>
</svg>
