<svg width="70" height="71" viewBox="0 0 70 71" fill="none" xmlns="http://www.w3.org/2000/svg">
<rect y="0.780273" width="70" height="70" rx="35" fill="#1BCBE3"/>
<g clip-path="url(#clip0_8512_1962)">
<path d="M48.6966 28.2814C48.6966 28.2814 37.4058 23.2797 37.4028 23.2784C36.6403 22.9478 35.8319 22.7803 35 22.7803C34.1681 22.7803 33.3597 22.9478 32.5972 23.2784C32.5942 23.2797 21.3034 28.2814 21.3034 28.2814C19.904 28.8903 19 30.3023 19 31.8803C19 33.4582 19.904 34.8703 21.3034 35.4792L24 36.6737V44.8803C24 47.0308 25.6823 48.7803 27.75 48.7803H42.25C44.3177 48.7803 46 47.0308 46 44.8803V41.4138C46 40.6958 45.4404 40.1138 44.75 40.1138C44.0596 40.1138 43.5 40.6958 43.5 41.4138V44.8803C43.5 45.5971 42.9393 46.1803 42.25 46.1803H27.75C27.0608 46.1803 26.5 45.5971 26.5 44.8803V37.7813C26.5 37.7813 32.5942 40.481 32.5972 40.4823C33.3597 40.8127 34.1681 40.9803 35 40.9803C35.8318 40.9803 36.6402 40.8127 37.4028 40.4823C37.4058 40.481 48.6966 35.4792 48.6966 35.4792C50.096 34.8703 51 33.4582 51 31.8803C51 30.3023 50.096 28.8903 48.6966 28.2814ZM47.7301 33.0813C47.7271 33.0826 36.4373 38.0839 36.4373 38.0839C35.9821 38.2806 35.4986 38.3803 34.9999 38.3803C34.5013 38.3803 34.0178 38.2806 33.5627 38.084C32.4414 37.5872 22.2728 33.0826 22.2698 33.0813C21.8022 32.8786 21.5 32.4072 21.5 31.8803C21.5 31.3534 21.8022 30.882 22.2699 30.6793C22.2729 30.678 33.5627 25.6766 33.5627 25.6766C34.0178 25.48 34.5014 25.3803 35 25.3803C35.4986 25.3803 35.9822 25.48 36.4373 25.6766C36.4373 25.6766 47.7271 30.678 47.7301 30.6793C48.1978 30.882 48.5 31.3534 48.5 31.8803C48.5 32.4072 48.1978 32.8786 47.7301 33.0813Z" fill="white"/>
<path d="M49.75 37.9414C49.0596 37.9414 48.5 38.5234 48.5 39.2414V44.8804C48.5 45.5984 49.0596 46.1804 49.75 46.1804C50.4404 46.1804 51 45.5984 51 44.8804V39.2414C51 38.5234 50.4404 37.9414 49.75 37.9414Z" fill="white"/>
</g>
<defs>
<clipPath id="clip0_8512_1962">
<rect width="32" height="26" fill="white" transform="translate(19 22.7803)"/>
</clipPath>
</defs>
</svg>
