<svg width="512" height="512" viewBox="0 0 512 512" fill="none" xmlns="http://www.w3.org/2000/svg">
<g clip-path="url(#clip0_542_123)">
<path d="M498.872 415.386L97.6171 14.1294C80.1172 -3.37045 51.745 -3.37045 34.2717 14.1294L13.1249 35.2441C-4.37497 52.7495 -4.37497 81.1217 13.1249 98.5936L414.38 499.85C431.886 517.35 460.258 517.35 477.73 499.85L498.844 478.736C516.378 461.264 516.378 432.886 498.872 415.386Z" fill="white"/>
<path d="M414.38 14.1294L13.1249 415.386C-4.37497 432.886 -4.37497 461.264 13.1249 478.736L34.2395 499.85C51.745 517.35 80.1172 517.35 97.5891 499.85L498.872 98.6215C516.378 81.1217 516.378 52.7495 498.872 35.2776L477.758 14.163C460.258 -3.3705 431.886 -3.3705 414.38 14.1294Z" fill="white"/>
</g>
<defs>
<clipPath id="clip0_542_123">
<rect width="512" height="512" fill="white"/>
</clipPath>
</defs>
</svg>
