<svg width="21" height="21" viewBox="0 0 21 21" fill="none" xmlns="http://www.w3.org/2000/svg">
<g clip-path="url(#clip0_8513_444)">
<path d="M18.6896 6.12663C16.334 5.14885 14.0007 4.14885 11.6896 3.12663C11.2007 2.94885 10.6896 2.85996 10.1563 2.85996C9.62292 2.85996 9.11181 2.94885 8.62292 3.12663L1.62292 6.12663C1.17847 6.34885 0.822917 6.64885 0.55625 7.02663C0.289583 7.4044 0.15625 7.83774 0.15625 8.32663C0.15625 8.81552 0.289583 9.24885 0.55625 9.62663C0.822917 10.0044 1.17847 10.2822 1.62292 10.46L3.28958 11.1933V16.1266C3.28958 16.7933 3.51181 17.3488 3.95625 17.7933C4.40069 18.2377 4.95625 18.46 5.62292 18.46H14.6896C15.3563 18.46 15.9118 18.2377 16.3563 17.7933C16.8007 17.3488 17.0229 16.7933 17.0229 16.1266V14.06C17.0229 13.8377 16.9451 13.6488 16.7896 13.4933C16.634 13.3377 16.4563 13.26 16.2563 13.26C16.0563 13.26 15.8785 13.3377 15.7229 13.4933C15.5674 13.6488 15.4896 13.8377 15.4896 14.06V16.1266C15.4896 16.3488 15.4118 16.5377 15.2563 16.6933C15.1007 16.8488 14.9118 16.9266 14.6896 16.9266H5.62292C5.40069 16.9266 5.21181 16.8488 5.05625 16.6933C4.90069 16.5377 4.82292 16.3488 4.82292 16.1266V11.86L8.62292 13.46C9.11181 13.6822 9.62292 13.7933 10.1563 13.7933C10.6896 13.7933 11.2007 13.6822 11.6896 13.46L18.6896 10.46C19.134 10.2822 19.4896 10.0044 19.7563 9.62663C20.0229 9.24885 20.1563 8.81552 20.1563 8.32663C20.1563 7.83774 20.0229 7.4044 19.7563 7.02663C19.4896 6.64885 19.134 6.34885 18.6896 6.12663ZM18.0896 9.05996C15.734 10.0377 13.3785 11.0377 11.0229 12.06C10.7563 12.1488 10.4674 12.1933 10.1563 12.1933C9.84514 12.1933 9.55625 12.1488 9.28958 12.06L2.22292 9.05996C2.04514 8.97107 1.91181 8.85996 1.82292 8.72663C1.73403 8.59329 1.68958 8.44885 1.68958 8.29329C1.68958 8.13774 1.73403 7.99329 1.82292 7.85996C1.91181 7.72663 2.04514 7.63774 2.22292 7.59329L9.28958 4.59329C9.55625 4.45996 9.84514 4.39329 10.1563 4.39329C10.4674 4.39329 10.7563 4.45996 11.0229 4.59329L18.0896 7.59329C18.2674 7.63774 18.4007 7.72663 18.4896 7.85996C18.5785 7.99329 18.6229 8.13774 18.6229 8.29329C18.6229 8.44885 18.5785 8.59329 18.4896 8.72663C18.4007 8.85996 18.2674 8.97107 18.0896 9.05996ZM19.3563 11.9266C19.134 11.9266 18.9563 12.0044 18.8229 12.16C18.6896 12.3155 18.6229 12.5044 18.6229 12.7266V16.1266C18.6229 16.3488 18.6896 16.5377 18.8229 16.6933C18.9563 16.8488 19.134 16.9266 19.3563 16.9266C19.5785 16.9266 19.7674 16.8488 19.9229 16.6933C20.0785 16.5377 20.1563 16.3488 20.1563 16.1266V12.7266C20.1563 12.5044 20.0785 12.3155 19.9229 12.16C19.7674 12.0044 19.5785 11.9266 19.3563 11.9266Z" fill="#7F7E97"/>
</g>
<defs>
<clipPath id="clip0_8513_444">
<rect width="20" height="20" fill="white" transform="matrix(1 0 0 -1 0.15625 20.6602)"/>
</clipPath>
</defs>
</svg>
