<svg width="21" height="21" viewBox="0 0 21 21" fill="none" xmlns="http://www.w3.org/2000/svg">
<g clip-path="url(#clip0_8513_440)">
<path d="M10.7266 20.6602C8.90434 20.6602 7.22656 20.2157 5.69323 19.3268C4.1599 18.4379 2.94878 17.2268 2.0599 15.6935C1.17101 14.1602 0.726562 12.4824 0.726562 10.6602C0.726562 8.83793 1.17101 7.16016 2.0599 5.62682C2.94878 4.09349 4.1599 2.88238 5.69323 1.99349C7.22656 1.1046 8.90434 0.660154 10.7266 0.660154C12.5488 0.660154 14.2266 1.1046 15.7599 1.99349C17.2932 2.88238 18.5043 4.09349 19.3932 5.62682C20.2821 7.16016 20.7266 8.83793 20.7266 10.6602C20.7266 12.4824 20.2821 14.1602 19.3932 15.6935C18.5043 17.2268 17.2932 18.4379 15.7599 19.3268C14.2266 20.2157 12.5488 20.6602 10.7266 20.6602ZM10.7266 1.92682C9.12656 1.92682 7.6599 2.31571 6.32656 3.09349C4.99323 3.87127 3.93767 4.92682 3.1599 6.26016C2.38212 7.59349 1.99323 9.06016 1.99323 10.6602C1.99323 12.2602 2.38212 13.7268 3.1599 15.0602C3.93767 16.3935 4.99323 17.449 6.32656 18.2268C7.6599 19.0046 9.12656 19.3935 10.7266 19.3935C12.3266 19.3935 13.7932 19.0046 15.1266 18.2268C16.4599 17.449 17.5155 16.3935 18.2932 15.0602C19.071 13.7268 19.4599 12.2602 19.4599 10.6602C19.4599 9.06016 19.071 7.59349 18.2932 6.26016C17.5155 4.92682 16.4599 3.87127 15.1266 3.09349C13.7932 2.31571 12.3266 1.92682 10.7266 1.92682ZM15.1266 16.0602C14.9488 16.0602 14.7932 15.9935 14.6599 15.8602L10.2599 11.5268C10.171 11.3935 10.1266 11.2379 10.1266 11.0602V5.26016C10.1266 5.08238 10.1821 4.92682 10.2932 4.79349C10.4043 4.66016 10.5488 4.59349 10.7266 4.59349C10.9043 4.59349 11.0488 4.66016 11.1599 4.79349C11.271 4.92682 11.3266 5.08238 11.3266 5.26016V10.7935L15.5266 14.9935C15.6599 15.1268 15.7266 15.2824 15.7266 15.4602C15.7266 15.6379 15.671 15.7824 15.5599 15.8935C15.4488 16.0046 15.3043 16.0602 15.1266 16.0602Z" fill="#7F7E97"/>
</g>
<defs>
<clipPath id="clip0_8513_440">
<rect width="20" height="20" fill="white" transform="matrix(1 0 0 -1 0.726562 20.6602)"/>
</clipPath>
</defs>
</svg>
