<svg width="18" height="19" viewBox="0 0 18 19" fill="none" xmlns="http://www.w3.org/2000/svg">
<g clip-path="url(#clip0_8513_684)">
<path d="M18 9.17969C18 4.22969 13.95 0.179688 9 0.179688C4.05 0.179688 0 4.13969 0 9.17969C0 13.6797 3.33 17.3697 7.56 18.0897V11.7897H5.31V9.17969H7.56V7.19969C7.56 4.94969 8.91 3.68969 10.98 3.68969C11.97 3.68969 12.96 3.86969 12.96 3.86969V6.11969H11.79C10.71 6.11969 10.35 6.83969 10.35 7.55969V9.26969H12.87L12.51 11.7897H10.44V18.0897C14.67 17.3697 18 13.6797 18 9.17969Z" fill="#557DBC"/>
</g>
<defs>
<clipPath id="clip0_8513_684">
<rect width="18" height="18" fill="white" transform="translate(0 0.0898438)"/>
</clipPath>
</defs>
</svg>
