<svg width="512" height="512" viewBox="0 0 512 512" fill="none" xmlns="http://www.w3.org/2000/svg">
<path d="M392 135.995C358.26 135.995 327.78 149.915 305.98 172.325L276.92 202.195L308.34 234.485L338.26 203.725C351.89 189.715 370.95 180.995 392 180.995C433.35 180.995 467 214.645 467 256.005C467 297.355 433.35 331.005 392 331.005C370.95 331.005 351.89 322.285 338.26 308.265C294.18 262.952 250.1 217.639 206.02 172.325C184.22 149.915 153.74 135.995 120 135.995C53.73 135.995 0 189.725 0 256.005C0 322.275 53.73 376.005 120 376.005C153.74 376.005 184.22 362.085 206.02 339.675L235.08 309.805L203.66 277.515L173.74 308.265C160.11 322.285 141.05 331.005 120 331.005C78.65 331.005 45 297.355 45 256.005C45 214.645 78.65 180.995 120 180.995C141.05 180.995 160.11 189.715 173.74 203.725L305.98 339.675C327.78 362.085 358.26 376.005 392 376.005C458.27 376.005 512 322.275 512 256.005C512 189.725 458.27 135.995 392 135.995Z" fill="white"/>
</svg>
