<svg width="18" height="19" viewBox="0 0 18 19" fill="none" xmlns="http://www.w3.org/2000/svg">
<g clip-path="url(#clip0_8513_686)">
<path d="M9.00125 12.0601C10.6415 12.0601 11.9713 10.7304 11.9713 9.09012C11.9713 7.44983 10.6415 6.12012 9.00125 6.12012C7.36096 6.12012 6.03125 7.44983 6.03125 9.09012C6.03125 10.7304 7.36096 12.0601 9.00125 12.0601Z" fill="#ED1376"/>
<path d="M12.78 0.0898438H5.22C2.34 0.0898438 0 2.42984 0 5.30984V12.7798C0 15.7498 2.34 18.0898 5.22 18.0898H12.69C15.57 18.0898 17.91 15.7498 17.91 12.8698V5.30984C18 2.42984 15.66 0.0898438 12.78 0.0898438ZM9 13.5898C6.48 13.5898 4.5 11.6098 4.5 9.08984C4.5 6.56984 6.48 4.58984 9 4.58984C11.52 4.58984 13.5 6.56984 13.5 9.08984C13.5 11.6098 11.52 13.5898 9 13.5898ZM14.22 4.58984C13.86 4.58984 13.5 4.22984 13.5 3.86984C13.5 3.50984 13.86 3.14984 14.22 3.14984C14.58 3.14984 14.94 3.50984 14.94 3.86984C14.94 4.22984 14.67 4.58984 14.22 4.58984Z" fill="#ED1376"/>
</g>
<defs>
<clipPath id="clip0_8513_686">
<rect width="18" height="18" fill="white" transform="translate(0 0.0898438)"/>
</clipPath>
</defs>
</svg>
