<svg width="15" height="15" viewBox="0 0 15 15" fill="none" xmlns="http://www.w3.org/2000/svg">
<g clip-path="url(#clip0_8513_725)">
<path d="M14.8 13.7015L12 11.0015C12.9 9.80147 13.5 8.40147 13.5 6.80147C13.5 3.10146 10.5 0.00146484 6.7 0.00146484C2.9 0.00146484 0 3.00147 0 6.80147C0 10.6015 3 13.6015 6.8 13.6015C8.4 13.6015 9.9 13.0015 11 12.1015L13.8 14.9015C13.9 15.0015 14.1 15.1015 14.3 15.1015C14.5 15.1015 14.7 15.0015 14.8 14.9015C15.1 14.5015 15.1 14.0015 14.8 13.7015ZM1.5 6.80147C1.5 3.90146 3.9 1.60146 6.7 1.60146C9.5 1.60146 12 3.90146 12 6.80147C12 9.70147 9.6 12.0015 6.8 12.0015C4 12.0015 1.5 9.60147 1.5 6.80147Z" fill="#102136"/>
</g>
<defs>
<clipPath id="clip0_8513_725">
<rect width="15" height="15" fill="white" transform="translate(0 0.00146484)"/>
</clipPath>
</defs>
</svg>
