<svg width="16" height="16" viewBox="0 0 16 16" fill="none" xmlns="http://www.w3.org/2000/svg">
<g clip-path="url(#clip0_8513_730)">
<path d="M4.84219 6.38154C4.84219 5.98154 5.14219 5.58154 5.64219 5.58154C6.14219 5.58154 6.44219 5.88154 6.44219 6.38154C6.44219 7.38154 7.24219 8.18154 8.24219 8.18154C9.24219 8.18154 10.0422 7.38154 10.0422 6.38154C10.0422 5.98154 10.3422 5.58154 10.8422 5.58154C11.3422 5.58154 11.6422 5.88154 11.6422 6.38154C11.6422 8.18154 10.1422 9.58154 8.44219 9.58154C6.74219 9.58154 4.84219 8.18154 4.84219 6.38154ZM14.8422 3.68154V13.3815C14.8422 14.3815 14.0422 15.0815 13.0422 15.0815H3.04219C2.04219 15.0815 1.24219 14.2815 1.24219 13.3815V3.68154L3.74219 0.081543H12.5422L14.8422 3.68154ZM3.54219 3.08154H12.7422L11.7422 1.58154H4.54219L3.54219 3.08154ZM13.4422 4.58154H2.84219V13.3815C2.84219 13.4815 2.94219 13.5815 3.04219 13.5815H13.0422C13.1422 13.5815 13.2422 13.4815 13.2422 13.3815V4.58154H13.4422Z" fill="#102136"/>
</g>
<defs>
<clipPath id="clip0_8513_730">
<rect width="15" height="15" fill="white" transform="translate(0.640625 0.081543)"/>
</clipPath>
</defs>
</svg>
