<svg width="21" height="21" viewBox="0 0 21 21" fill="none" xmlns="http://www.w3.org/2000/svg">
<g clip-path="url(#clip0_8513_732)">
<path d="M10.6406 0.501465C5.17396 0.501465 0.640625 5.0348 0.640625 10.5015C0.640625 15.9681 5.17396 20.5015 10.6406 20.5015C16.1073 20.5015 20.6406 15.9681 20.6406 10.5015C20.6406 5.0348 16.1073 0.501465 10.6406 0.501465ZM10.6406 3.30146C12.5073 3.30146 13.974 4.76813 13.974 6.50146C13.974 8.2348 12.5073 9.8348 10.6406 9.8348C8.77396 9.8348 7.30729 8.36813 7.30729 6.50146C7.30729 4.6348 8.77396 3.30146 10.6406 3.30146ZM10.6406 18.5015C7.84063 18.5015 5.44063 17.1681 3.97396 15.0348C5.17396 13.3015 8.64062 12.5015 10.6406 12.5015C12.6406 12.5015 16.1073 13.3015 17.3073 15.0348C15.8406 17.1681 13.4406 18.5015 10.6406 18.5015Z" fill="#102136"/>
</g>
<defs>
<clipPath id="clip0_8513_732">
<rect width="20" height="20" fill="white" transform="translate(0.640625 0.501465)"/>
</clipPath>
</defs>
</svg>
