<svg width="512" height="512" viewBox="0 0 512 512" fill="none" xmlns="http://www.w3.org/2000/svg">
<path d="M366 0H146C125.322 0 108.5 16.822 108.5 37.5V474.5C108.5 495.178 125.322 512 146 512H366C386.678 512 403.5 495.178 403.5 474.5V37.5C403.5 16.822 386.678 0 366 0ZM388.5 407H176C174.011 407 172.103 407.79 170.697 409.197C169.29 410.603 168.5 412.511 168.5 414.5C168.5 416.489 169.29 418.397 170.697 419.803C172.103 421.21 174.011 422 176 422H388.5V474.5C388.5 486.907 378.407 497 366 497H146C133.593 497 123.5 486.907 123.5 474.5V422H146C147.989 422 149.897 421.21 151.303 419.803C152.71 418.397 153.5 416.489 153.5 414.5C153.5 412.511 152.71 410.603 151.303 409.197C149.897 407.79 147.989 407 146 407H123.5V75H388.5V407ZM388.5 60H123.5V37.5C123.5 25.093 133.593 15 146 15H366C378.407 15 388.5 25.093 388.5 37.5V60Z" fill="white"/>
<path d="M286 30H256C254.011 30 252.103 30.7902 250.697 32.1967C249.29 33.6032 248.5 35.5109 248.5 37.5C248.5 39.4891 249.29 41.3968 250.697 42.8033C252.103 44.2098 254.011 45 256 45H286C287.989 45 289.897 44.2098 291.303 42.8033C292.71 41.3968 293.5 39.4891 293.5 37.5C293.5 35.5109 292.71 33.6032 291.303 32.1967C289.897 30.7902 287.989 30 286 30ZM256 437C243.593 437 233.5 447.093 233.5 459.5C233.5 471.907 243.593 482 256 482C268.407 482 278.5 471.907 278.5 459.5C278.5 447.093 268.407 437 256 437ZM256 467C251.864 467 248.5 463.636 248.5 459.5C248.5 455.364 251.864 452 256 452C260.136 452 263.5 455.364 263.5 459.5C263.5 463.636 260.136 467 256 467Z" fill="white"/>
<path d="M226 45C230.142 45 233.5 41.6421 233.5 37.5C233.5 33.3579 230.142 30 226 30C221.858 30 218.5 33.3579 218.5 37.5C218.5 41.6421 221.858 45 226 45Z" fill="white"/>
</svg>
