<svg width="512" height="512" viewBox="0 0 512 512" fill="none" xmlns="http://www.w3.org/2000/svg">
<path d="M243.655 133.36C231.44 126.273 216.843 126.249 204.604 133.296C192.328 140.365 185 153.055 185 167.242V266.88C185 281.066 192.328 293.757 204.603 300.825C210.704 304.338 217.388 306.094 224.074 306.094C230.8 306.094 237.528 304.316 243.654 300.761L329.507 250.942C341.713 243.86 349 231.195 349 217.061C349 202.927 341.713 190.261 329.508 183.18L243.655 133.36ZM225 265.339V168.782L308.198 217.061L225 265.339Z" fill="white"/>
<path d="M492 236.061C503.046 236.061 512 227.107 512 216.061V116.061C512 71.949 476.112 36.061 432 36.061H80C35.888 36.061 0 71.949 0 116.061V316.061C0 360.173 35.888 396.061 80 396.061H236V435.939H166C154.954 435.939 146 444.893 146 455.939C146 466.985 154.954 475.939 166 475.939H346C357.046 475.939 366 466.985 366 455.939C366 444.893 357.046 435.939 346 435.939H276V396.061H432C476.112 396.061 512 360.173 512 316.061C512 305.015 503.046 296.061 492 296.061C480.954 296.061 472 305.015 472 316.061C472 338.117 454.056 356.061 432 356.061H80C57.944 356.061 40 338.117 40 316.061V116.061C40 94.005 57.944 76.061 80 76.061H432C454.056 76.061 472 94.005 472 116.061V216.061C472 227.107 480.954 236.061 492 236.061Z" fill="white"/>
</svg>
