<svg width="512" height="440" viewBox="0 0 512 440" fill="none" xmlns="http://www.w3.org/2000/svg">
<path d="M243.655 97.3599C231.44 90.2729 216.843 90.249 204.604 97.296C192.328 104.365 185 117.055 185 131.242V230.88C185 245.066 192.328 257.757 204.603 264.825C210.704 268.338 217.388 270.094 224.074 270.094C230.8 270.094 237.528 268.316 243.654 264.761L329.507 214.942C341.713 207.86 349 195.195 349 181.061C349 166.927 341.713 154.261 329.508 147.18L243.655 97.3599ZM225 229.339V132.782L308.198 181.061L225 229.339Z" fill="#3DBEFF"/>
<path d="M492 200.061C503.046 200.061 512 191.107 512 180.061V80.061C512 35.949 476.112 0.0609741 432 0.0609741H80C35.888 0.0609741 0 35.949 0 80.061V280.061C0 324.173 35.888 360.061 80 360.061H236V399.939H166C154.954 399.939 146 408.893 146 419.939C146 430.985 154.954 439.939 166 439.939H346C357.046 439.939 366 430.985 366 419.939C366 408.893 357.046 399.939 346 399.939H276V360.061H432C476.112 360.061 512 324.173 512 280.061C512 269.015 503.046 260.061 492 260.061C480.954 260.061 472 269.015 472 280.061C472 302.117 454.056 320.061 432 320.061H80C57.944 320.061 40 302.117 40 280.061V80.061C40 58.005 57.944 40.061 80 40.061H432C454.056 40.061 472 58.005 472 80.061V180.061C472 191.107 480.954 200.061 492 200.061Z" fill="#3DBEFF"/>
</svg>
