<svg width="18" height="19" viewBox="0 0 18 19" fill="none" xmlns="http://www.w3.org/2000/svg">
<g clip-path="url(#clip0_8513_689)">
<path d="M13.5 0.0898438H4.5C1.98 0.0898438 0 2.06984 0 4.58984V13.5898C0 16.1098 1.98 18.0898 4.5 18.0898H13.5C16.02 18.0898 18 16.1098 18 13.5898V4.58984C18 2.06984 16.02 0.0898438 13.5 0.0898438ZM13.05 9.89984L6.93 13.3198C6.84 13.4098 6.66 13.4098 6.48 13.4098C6.03 13.4098 5.58 13.0498 5.58 12.5098V5.66984C5.58 5.21984 5.94 4.76984 6.48 4.76984C6.66 4.76984 6.75 4.76984 6.93 4.85984L13.05 8.27984C13.5 8.54984 13.68 8.99984 13.41 9.44984C13.32 9.62984 13.14 9.80984 13.05 9.89984Z" fill="#FF0000"/>
</g>
<defs>
<clipPath id="clip0_8513_689">
<rect width="18" height="18" fill="white" transform="translate(0 0.0898438)"/>
</clipPath>
</defs>
</svg>
